<?xml version="1.0" encoding="UTF-8" standalone="no"?>
<svg
   xmlns:dc="http://purl.org/dc/elements/1.1/"
   xmlns:cc="http://creativecommons.org/ns#"
   xmlns:rdf="http://www.w3.org/1999/02/22-rdf-syntax-ns#"
   xmlns:svg="http://www.w3.org/2000/svg"
   xmlns="http://www.w3.org/2000/svg"
   xmlns:sodipodi="http://sodipodi.sourceforge.net/DTD/sodipodi-0.dtd"
   xmlns:inkscape="http://www.inkscape.org/namespaces/inkscape"
   width="35"
   height="35"
   viewBox="0 0 35 35"
   version="1.1"
   id="svg8"
   sodipodi:docname="a.svg"
   inkscape:version="1.0 (4035a4fb49, 2020-05-01)">
  <metadata
     id="metadata14">
    <rdf:RDF>
      <cc:Work
         rdf:about="">
        <dc:format>image/svg+xml</dc:format>
        <dc:type
           rdf:resource="http://purl.org/dc/dcmitype/StillImage" />
      </cc:Work>
    </rdf:RDF>
  </metadata>
  <defs
     id="defs12" />
  <sodipodi:namedview
     inkscape:document-rotation="0"
     pagecolor="#ffffff"
     bordercolor="#666666"
     borderopacity="1"
     objecttolerance="10"
     gridtolerance="10"
     guidetolerance="10"
     inkscape:pageopacity="0"
     inkscape:pageshadow="2"
     inkscape:window-width="1366"
     inkscape:window-height="705"
     id="namedview10"
     showgrid="false"
     inkscape:zoom="12.971429"
     inkscape:cx="17.5"
     inkscape:cy="17.5"
     inkscape:window-x="-8"
     inkscape:window-y="-8"
     inkscape:window-maximized="1"
     inkscape:current-layer="g6" />
  <g
     transform="translate(-0.098)"
     id="g6">
    <circle
       r="17.5"
       cx="17.5"
       cy="17.5"
       transform="translate(0.098)"
       fill="#1b25fb"
       id="circle2"
       style="fill:#000000" />
    <path
       d="M15.025,51.292c.011.141.011.282.011.423A9.435,9.435,0,0,1,5.27,60.964,10.1,10.1,0,0,1,0,59.5a7.494,7.494,0,0,0,.829.04A7.121,7.121,0,0,0,5.09,58.156,3.42,3.42,0,0,1,1.881,55.9a4.564,4.564,0,0,0,.648.05,3.821,3.821,0,0,0,.9-.111A3.3,3.3,0,0,1,.68,52.651v-.04a3.6,3.6,0,0,0,1.551.413A3.207,3.207,0,0,1,.7,50.316a3.1,3.1,0,0,1,.468-1.64,9.946,9.946,0,0,0,7.077,3.4,3.484,3.484,0,0,1-.085-.745,3.344,3.344,0,0,1,3.432-3.251A3.516,3.516,0,0,1,14.1,49.109a6.991,6.991,0,0,0,2.178-.785,3.28,3.28,0,0,1-1.509,1.791,7.185,7.185,0,0,0,1.976-.5A7.178,7.178,0,0,1,15.025,51.292Z"
       transform="translate(9.569 -37.04)"
       fill="#fff"
       id="path4" />
  </g>
</svg>
