<?xml version="1.0" encoding="UTF-8" standalone="no"?>
<svg
   xmlns:dc="http://purl.org/dc/elements/1.1/"
   xmlns:cc="http://creativecommons.org/ns#"
   xmlns:rdf="http://www.w3.org/1999/02/22-rdf-syntax-ns#"
   xmlns:svg="http://www.w3.org/2000/svg"
   xmlns="http://www.w3.org/2000/svg"
   xmlns:sodipodi="http://sodipodi.sourceforge.net/DTD/sodipodi-0.dtd"
   xmlns:inkscape="http://www.inkscape.org/namespaces/inkscape"
   inkscape:version="1.0 (4035a4fb49, 2020-05-01)"
   sodipodi:docname="Auhseh_logo.svg"
   id="svg8"
   version="1.1"
   viewBox="0 0 61 51"
   height="51"
   width="61">
  <metadata
     id="metadata14">
    <rdf:RDF>
      <cc:Work
         rdf:about="">
        <dc:format>image/svg+xml</dc:format>
        <dc:type
           rdf:resource="http://purl.org/dc/dcmitype/StillImage" />
      </cc:Work>
    </rdf:RDF>
  </metadata>
  <defs
     id="defs12" />
  <sodipodi:namedview
     inkscape:current-layer="g6"
     inkscape:window-maximized="1"
     inkscape:window-y="-8"
     inkscape:window-x="-8"
     inkscape:cy="25.5"
     inkscape:cx="30.5"
     inkscape:zoom="8.9019608"
     showgrid="false"
     id="namedview10"
     inkscape:window-height="705"
     inkscape:window-width="1366"
     inkscape:pageshadow="2"
     inkscape:pageopacity="0"
     guidetolerance="10"
     gridtolerance="10"
     objecttolerance="10"
     borderopacity="1"
     bordercolor="#666666"
     pagecolor="#ffffff" />
  <g
     id="g6"
     transform="translate(-2492 -15265)">
    <rect
       style="fill:#f7d70f;fill-opacity:1"
       y="0"
       x="0"
       id="rect2"
       fill="#111ad5"
       transform="translate(2492,15265)"
       rx="18"
       height="51"
       width="61" />
    <path
       style="fill:#000000"
       id="path4"
       fill="#fff"
       transform="translate(2505 15299)"
       d="M23.839-22.94l-.682-.248-.217.062-.992-.155-.279.093-.434-.124-1.178.062-.4.186H18.91l-.279.155-.4.341-.217-.062-.434.031-.9.341-.217.279-.217.031-.31.248h-.217l-.4.341-.527.279-.341.465-.806.434L13.485-20l-.031.248-.093.155H13.02l-1.581,2.015-.031.248-.279.434-.217.062-.4.93-.4.279v.4l-.248.341-.186.4-.124.5-.155.155-.217.372-.217.961.186.248-.4.155-.062.5-.248.4-.372.31-.155-.093-.186.031L7.6-11.1v-.248l-.186-.124-.4-.558-.062.155L6.727-11.9l.155-.186.031-.279-.062-.279H6.6l-.155-.124.341-.217-.651-.217-.093-.248.217.031.155.093.217.031.093-.279L6.572-13.8l-.124.155-.186-.093.279-.372L6.7-15.1l.155-.434v-.434L7.1-16.43l.62-.806.744-.682-.031-.217.062-.248L8.122-19,6.851-20.4v-.217l-.62-.4-.465-.124-.062.186-.155.062H5.3l-.155.558H4.867l-.4.279-.31.434-.341.341.062.341-.217.062-.31.279-.062.4-.279.155-.465,2.17-.155.31.031.744L2.6-13.8l-.093.341.4,1.674.248.372.186.124-.093.4.341.062-.031.217.093.217.558.589.062.279h.279l.217.124-.031.279.217.093.4.527.465.062.062.217.279.31.217.062.248-.062.217.217.806.527.31.31L8.06-6.6,8-6.355l.124.5v1.023l.093.465.434.589.031.217-.124.279.4.527-.124.279.434.62.5.9.31.4.434.248-.062.341.775.62.434.279.527.155.124.155.372.248.744.155.341.279.992.248.217-.341.465.341h.279l-.279-.279.062-.186.217.124.186.217h.527l1.4-.155.186-.248h.682l.4-.248.124-.217.279.062.775-.465.248-.031L20.77.4l.341-.279L21.39.093l.279-.4.248.031.31-.062L22.506.93l-.031.248.155.217.124.713.186.217v.31l.341.031.093.217.31.372.4.248,1.178.5.31-.124.558.093,1.488-.155.4-.279L28.3,3.5l.217-.093.651-.558.4-.217.372-.31.279-.4.031-.217-.062-.248L29.481.651,29.3.558l-.806.31-.434.093-.155.124L27.683.961H27.4L26.815.5,26.97.279,26.939,0l-.124-.248L27-.527V-.775l.5-1.24L27.4-2.232l.031-.31L27.59-2.7l.186-.465.248-1.085.124-.186-.031-.248.186-.372-.186-.186-.093-.279.217.062.248-.062-.031-.465.62-1.271.031-.248-.4-.124-.124-.217.341.031.248-.093v-.248l.217-.713-.062-.31.341-.093.217-.682-.093-.248.155-.217.248-.961.186-.465.155-.186v-.527l.248-.279-.031-.31.124-.5v-.279l.217-.217.093-.279-.062-.248.124-.155.093-.527-.651-.31h-.217l-.279.093-.217-.124-.465.062-.558-.062-.434-.155-.434-.465.155-.248-.093-.527.155-.775-.155-.434.031-.248-.155-.31.062-.217-.248-.341v-.248l-.155-.434-.155-.186-.465-.868-1.209-1.085-.279-.031-.465-.217-.4-.31-.341.062L24.118-23ZM16.43-9.207l-.186.124L16.12-8.9l-.186-.093-.527-.062-.744.217-.155.124-.279-.062-.558.062-.465-.4-.031.186.093.217-.217-.124-.124-.155.217-.4.279-1.426.124-.186v-.248l-.062-.155.62-1.209.124-.5.186-.124.248-.372.248-.713.217-.124.155-.186-.031-.248.341-.248.093-.186.031-.248.248-.155.31-.434-.093-.465.155-.155.124.155.279-.062.124-.279h.217l.155-.093.217-.372.031-.279.341.124.186-.093.062-.186.217-.062.31-.31.217-.093.155-.279.744-.124.558-.31.465-.186.31-.031.155.062.744-.155.248.093.341-.093.279.124.279-.031.372.279.31-.031.248.155-.062.186.558.62.248.124.217,1.488-.124.217-.217,1.023-.217.434-.186.155v.4l-.372.279-.31.341L23.5-13.3l-.217.124-.124.279-.527.4-.372.4-.465.31-.124.279-.248.062-.31.341-.5.155-.372.248-.341.341-.5.093-.5.372-.434.155h-.31l-.4.4-.248-.062-.434.217-.4-.093Zm7.688-.806.217-.093H24.8l.248.124L24.676-8.4l-.155.434.4.465-.4-.124-.465.9-.341.992-.341.186-.062.279-.589.837-.093.248-.279.093-.186.155-.279.5-.279.062-1.3,1.023-.279.031-.186.093-.124.155L18.693-1.8l-.465.186-.744-.155-.465.093L16.4-1.86l-.217.062-.062-.155-.558-.124-.5-.217-.713-.651-.248.093-.217-.031-.279.248.093-.279.186-.155.217-.031-.031-.248L13.95-3.5l-.124.4-.217-.217.155-.248-.558-1.3-.279.062-.186-.124.155-.217.186-.124.093-.589.093-.217-.124-.186-.527.248.062-.248.341-.217.248.093.155.124.279.031.682-.155.186.031.186-.217.031-.248.155.062-.031.217.62.186.186-.465.124.279H16.4l.434-.093.155-.124.31-.031.434-.217.4.062.341-.186.434-.124.31.031,1.24-.465.4-.4.279.062,1.3-.682.4-.279.248-.4.5-.062.155-.186.093-.279ZM10.354-11.346l.217-.124v-.155l.155.093.186.465-.186.248.186.155-.093.217.031.217-.062.217.217.062.155.155.279.124-.031.217.155.093.093.186-.124.124-.248-.062-.558-.4-.279.124.372.341h.155l-.341.4.093.217.093-.124.031-.217.31.031.279-.093.155.248.186-.248.186.372.279.372.217.124-.217.093-.186-.062-.372-.31-.217-.062.124.062-.217.279.062.217.341.31.248-.093.527.093.217.155.093.217v.248l-.248.062-.062.217-.124-.124L12.4-6.882l-.279.031-.155.124-.124.217-.062.434.248-.062.4-.31.248.031-.155.217-.4.248.093.682-.279.093-.155.186-.186-.124.093-.186.031-.248-.217.093-.124.4h-.186l-.4.186L10.6-4.991v-.217l.093-.186-.124-.124L10.2-5.3l-.217-.031.248.341H9.982l-.155-.124L9.8-5.332l.093-.186.434-.031.062-.248.155-.124h.186l-.062-.4-.155-.093.062-.465-.186-.4.248-.155-.186-.124-.124.217-.093-.186L10.2-7.781l-.093-.186-.31.031L9.145-7.6l-.31.031L8.8-7.812,8.9-8.029,8.711-8.06l-.217.093v-.4H8.8l.217.062V-8l.217.031L9.7-8.494l.062-.279.4-.062-.031.279.062.217.186.155.062-.279-.124-.465-.155-.124.155-.279-.279-.434L9.827-9.92,9.8-9.672l.279.372.031.248-.682.341-.465.093L8.68-8.649l.186-.341-.031-.248h.31l-.124.248.124.093.186-.124-.093-.217.4-.62-.217-.279.062-.217.279-.465.217-.155.248-.031-.062-.217ZM13.578-.434,13.33-.5l-.589.031.124.5h-.279l-.124-.155-.248.031-.279-.093-.279-.868-.434-.155-.31-.279.248-.341.217-.062.217.062.062.217.155.124.372-.279.093-.248h.279l.186-.155.217-.372-.031.31.372.279.124-.279H13.7L13.8-1.8l.093.186-.217.093-.248-.031-.217-.124-.434.062-.217-.124-.217.4-.279-.124-.186.186-.093.217L12-.868l.4-.186.062.4.248-.062.248-.372.186-.124v.341l.217-.062V-1.4l.341.248L13.64-.9l.124.186.062.31-.155.093ZM13.02-3.162l-.062.217-.341.031-.434.279-.279-.4-.4-.279-.248-.062-.4.155-.062-.4h.279l-.155-.217-.31.093-.186.155-.093.217.062.186.186.248-.186.062L10.2-3.131,9.951-3.1v-.155l.217-.062L10.044-3.5l-.093.186h-.31l-.062-.31.589-.155v-.279l.248-.124.217-.031.434.186.186-.093-.124-.217-.279-.031.124-.4.217.062.093.217.186.155.248-.093.124.155.031.217h-.62l.093.124.031.217.217-.062.186.062-.062.186v.248h.558l.217-.062.062-.279-.279-.062.093-.217.248-.062.031.217.217.062.4-.372.155.155-.124.217.093.217-.031.248-.093.186Zm14.818-7.285.248-.093-.217.434-.155.527.031.248-.186-.186H27.28l.124.31.217-.062.372.651-.031.31-.279.124.031.217-.093.4-.155-.155L27.4-7.967l-.248.124L27-7.688l.031-.217.124-.124L27-8.215l-.186-.093-.124-.217.248-.031.5.186.124-.062-.093-.279-.589-.868-.124.4-.279-.093.62-.589-.155-.124-.248-.093L26.66-9.8l-.217-.124-.248.062-.248-.5.5.031.217-.093-.31-.248.31-.093-.341-.062.5-.279.062.279.279-.062.062.248.341.372ZM27.4-13.206l.155.186-.124.186.217-.031.186-.124.248-.062-.031.186-.155.093.465.279-.062.341.341.186-.093.217-.217-.031-.372.155.4.527.031.186-.093.248-.279-.124-.155-.217-.062-.217h-.186l-.124.217h-.279l-.093-.155-.031-.248.434-.124.093-.155-.217-.124-.124-.155-.217.124.093.372-.5.062v-.155l-.186-.062V-11.9l.186-.341.279-.062L27-12.462l.155-.124v.279l.527-.062-.062-.217-.4-.217-.155-.155.031-.279ZM10.881-2.883,10.85-3.1l.217.155.062.248.465-.186.124.186.217.093.806.031-.124.186-.186.124-.651.248-.186-.062-.124-.341-.341.124-.248-.124-.341.372-.248.093L10.261-2.2l.062-.248.155-.186.248-.062Zm3.007-12.524.279-.279.248-.062-.155.465.155.465-.248-.093-.124-.217-.155.093-.062.217.124.155-.217.341.031.248-.186.093-.155.186.186.4-.4-.31.093-.248-.062-.248-.31-.062v-.217l.434.155.062-.155-.279-.186.124-.155.558-.372Zm12.121,2.232.279.527.031.279-.31.124-.093-.744h-.155l-.434-.186.124-.124h-.465l.124-.341.341.031.155.217.341-.186.465.341.589-.4.062.279-.248.434-.062.279-.248-.465h-.248Zm.961-2.418.186-.186.217-.093.186.031.124.279-.4-.062.155.4-.248-.031-.124.186v.341L27-14.818l-.186.093-.093-.217-.651-.341-.031.248.186.155.093.217-.434-.279-.155-.248.217-.062.062-.279.217.093.589.031Zm-1.7,12.648-.279.5-.217.155-.341-.062.217.31v.5L24.3-1.674v-.31l.124-.155-.4-.434-.186.341-.124-.155v-.248h.217l.682-.31h.217l.217.124ZM12.276-14.787l.186.248.341-.124-.062.31-.186.217.124.155.248.062-.093.186-.093.434h-.465l-.155-.558-.186-.186v-.341l.186.124.062.217.217.062.031-.217-.248-.527ZM14.415-1.24l-.124-.434h.217l.093.217.434.124.093.186.372.155-.465.279-.093-.124.093-.217-.186-.062-.217.062L14.446-.9l-.093.186-.589-.155.279-.4.248.186ZM26.536-6.851l.279.031v.279l.217-.124h.186l.155.093.093.217.031.279-.434-.186.155.527-.527-.186.093-.124L27-6.076,26.877-6.2l-.558.248.062-.186.155-.124Zm2.325-6.169.062-.217.124.093.062.186-.186.186.186.217.527.062-.186.186v.279l-.248-.031-.217-.155-.279.186-.093-.155.031-.775ZM11.439-10.23l.279.031-.186-.093h-.465l-.155-.124.155-.124.062-.217.248.155.155.248V-10.6l.341-.062v.186l.527-.062-.124.217-.5.186-.124.217-.341-.062Zm2.914,2.139.155-.434.186.093v.248h-.248l.155.155.093.248-.341.031.155.651-.248-.062-.093-.217L14.012-7.5V-8l.155.031Zm7.564-13.733.155-.155.341.279.124.217.093-.186.248-.155.031.279-.062.155-.155.155-.093-.186-.186.093-.062.186h-.279l.031-.248-.093-.217-.217-.031ZM13.051-7.6l-.5-.093.124-.248.155-.155.031-.279.093-.062.124.186-.062.279.155-.124-.031-.155.217-.186.124.31-.186.217-.031.279Zm.248-8.277.124.186-.341.651-.062.248-.217-.155-.124-.248.31-.4.093-.279Zm-1.581,1.55-.031.248.124.341-.217.031-.341.248-.155-.124V-13.8l.093-.248.155.062.031-.341Zm-1.7,7.564.155.155.279.062-.062.465L10.2-6.262l-.248-.093L9.889-6.6l-.4-.155-.124.217-.155.124L9.145-6.6l.062-.217L9.3-6.7l.155-.124.434-.124ZM26.226-3.813l.248-.031.093.186.341.248.031.248-.279.155-.186.186-.155-.124.093-.248.155.062.124-.155-.279-.031-.031-.248-.248-.062ZM20.026-21.7l.434.217h.248l-.155.4-.031.248.186.093.279.341H20.77l-.186-.124-.124-.186-.217-.775-.341.062ZM5.146-11.656v-.31H4.5l.093-.186.217-.031.372.155h.186l.124.527v.248l-.124.248-.155-.155.093-.248ZM15.438-1.705l.093-.186.217.093.124.217-.031.589-.248-.062-.186-.155-.093-.279.217-.062ZM10.943-6.386,10.85-6.2v.248l.4.341.124-.217v-.434l-.217-.093-.124-.186Zm13.919.992-.155-.217h.217l.062.217.186-.124h.434l-.217.062.279.124-.031.279-.155.155-.217.093L25.2-5.022l.093-.186-.031-.186-.217.186ZM21.359-21.7l.155-.093.217.031-.031.279-.155.186.124.155-.124.31-.31-.465-.093-.279Zm6.417,7.564.248-.124.031.248.186.093-.093.124H27.9l-.248.372-.217.093v-.248l.186-.217-.062-.186Zm.744,5.549-.093-.186V-8.99l.155-.4.341.217-.093.248.062.279-.124.124Zm-13.857,8,.248-.062L14.88-.4l-.124.155.341.062-.372.155-.093.248L14.446.093,14.043,0l.527-.186L14.508-.4ZM11.935-11.067l.186-.155.279-.062-.031.217-.155.062.217.031.248-.093.124.4-.279-.062-.186-.155-.4.124-.155-.124ZM12.214-4.5l.124-.217.155.124.527.062-.062.124-.217-.031-.124.248-.248.031L12.214-4,12-3.906l.124-.217.155-.124Zm-.248-8.122.093-.155h.155l.4.31.124.248-.124.124-.341-.124v-.341l-.155.124h-.248Zm4.991-6.417.31-.093-.279.341.124.124.217.062-.031.279-.124.124-.248.031-.031-.5-.093-.124ZM27-13.919l.093-.186.062-.682h.186v.992l-.465.062Zm-.434,8.494.124-.186.124.124v.279l-.279-.124-.217.31-.248.031-.062.341-.217-.124.155-.217.062-.217.217-.031.093-.155ZM23.343-3.193l.155-.5h.186l-.031.279.124.124-.217.465-.217.124-.031-.186.186-.093Zm2.263-3.1.31-.093.155-.217.155.155-.279.434h-.5l-.062-.124Zm-.093-2.79h.217l.186.093.062.279.124.186.248.093-.155.155-.248.093v-.31l-.093-.248-.186-.124-.279-.062Zm.124,1.24.217-.248.155.155-.155.651-.186-.124-.217-.341ZM23.87-.992l.093-.248.186-.155h.217L24.3-.868l-.217.031-.124.093ZM10.664-12.245l.186-.124.217.465-.248.155-.217-.062-.093-.279Zm-.093,4.309.093.186.248.124.155-.248v-.248l-.5-.062Zm-4.03-9.176.217.124.031.31-.279.186-.124-.186-.062-.279Zm21.576,3.627h.372l.217.155-.527.155-.279-.062v-.217Zm.465,3.069.31-.062v.279l-.527.186-.062-.341Zm-9.7-10.261L19.1-20.8h.217l.124.248-.279.031-.124.248-.217-.155ZM9.7-5.828l-.279-.031-.186-.186-.093-.248.248.062.558.31ZM26.133-.5l.279.093-.279.4-.248-.186-.031-.279ZM19.84-21.483l.031.31.093.217-.248.031v.155l-.217.031.124-.031-.062-.527ZM8.215-7.254l.217-.124.279.031.186.155v.186l-.186-.062-.155-.155-.4.217Zm2.511-5.828.248.093-.279.031.062.465-.124.124-.155-.186.062-.217-.031-.279ZM21.2-20.739l.465.062.124.465-.434-.31-.093.124ZM5.084-16.833l.093.279L4.9-16.771l-.155.155-.372-.217.124-.341.279.4Zm6.231,5.58.217-.031v.248l-.155.124-.248.031-.062-.341Zm16.337-.992-.093.155.589.186.062-.186-.031-.124-.248.062-.093-.155Zm-15.779.527.4-.186-.093.31L12-11.408l-.217-.155-.062-.279ZM26.071-4.4l.124-.155.062-.217.279.124-.279.372-.248.093Zm-2.139.186-.093-.217.4.279.124.186.062.279-.186-.124-.155-.031.031-.279ZM5.735-15.1l.31-.248.155.124-.279.093.031.217-.093.186-.217-.155Zm-1.116,1.7-.093-.31.093-.217.155.155.062.527Zm22.6-3.069.031-.31.248.093-.031.248-.124.217h-.124ZM3.627-14.508l.248-.093.186.031.031.248-.248-.062-.372.124ZM29.233-13.02l-.124-.093h.527l-.124.279-.279.062ZM11.78-13.454,12-13.3l.062.31-.186-.031-.217-.155Zm14.849-.837.062-.248.248.217-.186.279-.279-.093Zm-14.663-1.24v-.155l.093-.186.217.589H12ZM9.455-11.16l.248-.124-.062.248-.124.186-.124.031-.155-.248Zm-.31.961.217.124L9.3-9.734,8.959-9.92ZM7.409-9.052l-.217-.124-.124-.217V-9.61l.186.155.124.217.217.124Zm17.7,4.464.248.062.093.217-.248.062-.217-.062ZM11.377-11.9h.279l-.341.4-.248.093ZM24.645-1.426l.062-.186h.155l.062.4-.279.062Zm3.41-7.843.186-.124.124.155-.124.186h-.279l-.124-.124ZM4-12.772l.434-.062.124.279H4.309l-.279-.093.062-.124Zm7.254-.248.093-.155.248-.062-.031.248-.186.124-.248.031Zm1.4-2.821-.186-.093-.062-.217.434.124.093.217ZM23.715-.465l-.124-.217.031-.186.31.217.031.248Zm.713-19.406.155-.4h.186l-.186.465-.217.124ZM13.454.062l.217-.093L13.888,0l-.124.186-.248.062L13.3.217Zm13.02-2.418.248.062.093.217-.186.062-.217-.062ZM15.19-.527h.31l-.062.341-.279-.062ZM14.911.682,15.1.62l.031.248.124.217L15,.93,14.787.9ZM12.772-3.5l-.093.217.341.062v-.341ZM9.951-9.982l.155.093.217.031-.093-.248-.186-.155Zm.4,5.456L10.292-4.8h.217l.062.186v.248ZM15.965.961,15.779.806,15.531.775l.186-.217.4.4ZM5.735-12.214l-.217-.031-.093-.248.5.124ZM19.5-19.933l.124.279-.279.031-.124-.186Zm9.238,5.89-.031-.217.186.062.093.217v.248ZM25.358,1.023l.093-.186L25.73.9l-.124.186-.217.093ZM9.61-2.573l.155.093L9.7-2.294l-.279-.062v-.186Zm.4-4.588-.434-.248h.4l.186.186Zm.155-6.758.279-.062-.062.186-.155.093-.248-.031Zm.9,1.333.217-.124.186.124-.4.217ZM25.575.589V.341h.217l.062.279Zm.62-8.153.217.217h.217l.062.062-.31.031-.248-.093Zm-11.656-10.2-.031-.341.217.155.062.248ZM8.9-7.223l-.062-.186h.279l.186.186Zm18.538-.186.124.186-.124.186-.217-.31ZM24.676.5l.093-.217L24.986.5l-.279.186Zm.5-4.619.186.093.031.248-.279-.062Zm-.651,1.581.186.062.124-.155-.155-.093-.217-.031Zm.341-11.191.124-.248.124.186-.155.186-.248.031ZM11.439-6.758l.217-.062.062-.217h-.279Zm-6.6-3.5-.062-.217h.248l.062.279Zm8.184-6.324.248.155-.279.062-.248-.186Zm12.71-1.178.279.062-.155.248H25.73ZM10.912-6.665h.341l-.093-.186-.248-.031ZM26.2-7.006l.062.248H26.04l-.093-.248ZM19.716-20.181l.248.031L19.84-20h-.217l-.124-.093ZM11.346-1.4l.124.124.186-.217-.279-.124ZM8.091-9.8h.248l-.031.217-.217.062Zm-.279.527L8-9.455l.062.4H7.936Zm9.114-10.943h.217l-.062.279L16.864-20Zm-6.6,9.672h-.155l.031.155.155.124.155-.155ZM26.474.434l-.062.248L26.226.651,26.2.434ZM10.354-11.842l.155.217h-.248l-.155-.217ZM18.445-.372,18.693-.4,18.6-.155l-.248-.031ZM14.911-2.077H15.1l.093.341L14.911-1.8l.124-.093ZM14.043.682l.31.062L14.415.9,14.26.837l-.155.124Zm11.78-17.67-.031-.31.186.155.093.248ZM10.726-5.332l.31.217v-.341ZM6.169-14.725l.155.155-.062.248-.155-.062Zm12.648-6.727.217-.062v.217h-.341ZM5.89-16.926l.093-.186.186.217-.186.124Zm9.3-1.333.248.062-.062.155-.186.062ZM6.262-11.811l-.155-.155.124-.062.031.186h.372l-.186.155Zm19.747-.031v-.186l.248.062-.062.217Zm-2.046,8.4h.155v.217l-.217.062ZM4.278-13.33l.155.093.062.186-.279-.062Zm6.293,3.472.155.279.124-.341ZM14.911-15l.062.279-.186-.093L14.694-15ZM25.389.341,25.3.527,25.11.62V.4ZM11.284-14.539l-.031-.186h.217v.248Zm1.333,9.052L12.4-5.673l.186-.031.217.093ZM17.949.31,18.166.4,17.918.5,17.732.279ZM6.51-15.841v.217l-.186-.062-.062-.186Zm5.239,6.82.031-.217L12-8.99l-.186.093Zm-.217-3.441.279-.031-.217.124v.155l-.217-.155ZM13.02-16.9l-.062-.217.217.062.031.217Zm5.27-4.371-.062-.248.186.031.062.186ZM14.2-17.236l.155-.217.062.124v.217ZM12.555.372l.186.186h-.217L12.338.434ZM25.916-14.477l.155.031-.031.186-.186.062ZM27.342-2.883l-.093.124h-.186v-.186Zm-1.829-13.95h.155l-.093.217h-.186Zm-20.336,1.3h.186l-.062.186-.124.124Zm17.515-5.022.186.062-.062.155L22.63-20.4v-.093ZM10.788-7.347l.124.248.124-.31ZM11.811-4.8h.248l-.186.279ZM28.086-8.184l.279.062-.124.217Zm-14.88-9.672h.155l-.031.186-.186.031ZM5.177-16.275l.124.062v.124H5.022ZM26.319-7.719l-.062-.186h.155l.062.279Zm-12.431.713.155.093V-6.7H13.95ZM8.8-10.075,8.9-9.92H8.68l-.062-.155Zm3.534,1.55.217.217h-.279ZM4.96-11.377l.186.093-.186.062-.186-.062ZM24.583-6.944h.124v.186h-.186Zm-.868,7.967.186.155-.217.124ZM11.067-15.159l.248-.124-.248.341Zm6.014-6.262.062-.217.186.217ZM25.7,2.17l.031-.248.186.248ZM14.167.217l.186.217h-.248Zm3.906-20.553h.217l-.217.248ZM13.3-6.882l.248.062-.248.155ZM25.234-19l-.124-.186h.279ZM25.916.155l.217-.124-.124.31ZM24.18-.4h.186l-.124.279Zm-.62-20.212L23.5-20.4l-.217-.031Zm-1.674,10.2h.186l-.062.155h-.124ZM16.275-18.2l.186.217h-.217ZM13.764-8.308l.248.062-.124.155ZM15.1.155h.093V.341h-.155Zm-8.649-9.7.062.217-.248-.186Zm7.471-7.5.093-.186.031.186-.217.155ZM25.854-2.232l.093.217-.217-.062ZM16.678.558,16.8.744l-.155.093ZM26.877-10.2l.062-.217h-.186ZM9.424-11.966l.124.217H9.362Zm16.244.62v.186l-.217-.062ZM14.043-2.573h.186l-.062.217ZM27.621-14.632l.186-.093-.124.279ZM11.036-.868h.093v.155h-.155ZM5.7-13.733l.124.093-.248.124ZM17.949,1.147l.124.155h-.248Zm-4.4-17.3-.186.217-.093-.093ZM24.18,2.232l.124.155-.279-.062Zm2.449-8.556.124-.031L26.6-6.6Zm-20.8-5.487.062.186H5.7ZM10.7-10.757v-.186l-.186.062ZM18.724.4l.155-.124V.5ZM27.5-9.765l.124-.093-.279-.062ZM11.005-8.4l.031.155.155-.248Zm17.887-4.991.031-.186.124.279ZM24.459,1.085l.155.093-.031.186ZM25.73,1.3l.155.062.031.217Zm-.558-13.95.155.093-.124.124Zm.5,12.8.186-.062-.062.186Zm-13.051-19h.124v.124h-.124ZM25.668-7.564h.124v-.124h-.124ZM25.2-2.542h.124v.124H25.2ZM10.726-15.872h.124v.124h-.124Zm-.4.341h.124v.124h-.124Zm-4.96,1.519L5.3-14.2l.217.155ZM26.2-3.224h.124V-3.1H26.2Zm-13.454-11.1h.124v.124h-.124Zm-6.7,3.379h.124v.124H6.045ZM20-21.08h.124v.124H20ZM16.461-17.7h.124v.124h-.124ZM11.315-.124h.124V0h-.124Zm2.976-14.229.155-.093-.093.248Zm12.462-1.612.093.155H26.66Zm-3.472,4.681h.155l-.093.186ZM9.827-11.346h.155v.186ZM22.971-1.829l.186-.062v.155ZM13.423-7.843h.186v.155Zm5.518-12.028-.062-.155.217.093ZM25.854-3.72l.093.124-.155.093Zm-.341,2.511.093.124-.155.093ZM20.646-21.824h.217l-.217.124ZM10.974-12.8l-.248-.031.341-.062Zm1.643-.062-.093-.124.217.031ZM6.324-11.222l.062.155H6.231ZM18.507-21.917h.248l-.248.093ZM23.436-2.2l.062.186h-.124Zm0,1.891.124.093-.124.093Zm3.627-16.709.124.093-.124.093ZM17.887-1.488h.124V-1.4h-.124Zm6.076,2.976h.124v.093h-.124ZM20.522-20l.124.093-.124.093ZM28.4-6.851,28.3-6.944l.186-.062ZM24.18-11.315l-.093-.093.155-.062Zm-7.5-8.711v.093h-.217ZM15.934.341V.434h-.217Zm9.3-8.277.155-.031v.124Zm-.372,9.362.124.155h-.124ZM23.343-21.483l.155.124h-.155Zm-9.734,5.921.093.155-.155-.062ZM18.228.775h.124L18.166.9ZM4.836-18.321l.124.155L4.836-18.2ZM10.912-13.3h.124l-.186.124Z" />
  </g>
</svg>
