<?xml version="1.0" encoding="UTF-8" standalone="no"?>
<svg
   xmlns:dc="http://purl.org/dc/elements/1.1/"
   xmlns:cc="http://creativecommons.org/ns#"
   xmlns:rdf="http://www.w3.org/1999/02/22-rdf-syntax-ns#"
   xmlns:svg="http://www.w3.org/2000/svg"
   xmlns="http://www.w3.org/2000/svg"
   xmlns:sodipodi="http://sodipodi.sourceforge.net/DTD/sodipodi-0.dtd"
   xmlns:inkscape="http://www.inkscape.org/namespaces/inkscape"
   width="35"
   height="35"
   viewBox="0 0 35 35"
   version="1.1"
   id="svg8"
   sodipodi:docname="b.svg"
   inkscape:version="1.0 (4035a4fb49, 2020-05-01)">
  <metadata
     id="metadata14">
    <rdf:RDF>
      <cc:Work
         rdf:about="">
        <dc:format>image/svg+xml</dc:format>
        <dc:type
           rdf:resource="http://purl.org/dc/dcmitype/StillImage" />
      </cc:Work>
    </rdf:RDF>
  </metadata>
  <defs
     id="defs12" />
  <sodipodi:namedview
     inkscape:document-rotation="0"
     pagecolor="#ffffff"
     bordercolor="#666666"
     borderopacity="1"
     objecttolerance="10"
     gridtolerance="10"
     guidetolerance="10"
     inkscape:pageopacity="0"
     inkscape:pageshadow="2"
     inkscape:window-width="1366"
     inkscape:window-height="705"
     id="namedview10"
     showgrid="false"
     inkscape:zoom="12.971429"
     inkscape:cx="17.5"
     inkscape:cy="17.5"
     inkscape:window-x="-8"
     inkscape:window-y="-8"
     inkscape:window-maximized="1"
     inkscape:current-layer="g6" />
  <g
     transform="translate(-0.195)"
     id="g6">
    <circle
       cx="17.5"
       cy="17.5"
       transform="translate(0.195)"
       fill="#1b25fb"
       id="circle2"
       r="17.5"
       style="fill:#000000" />
    <path
       d="M17.2,8a9.2,9.2,0,1,0,9.2,9.2A9.212,9.212,0,0,0,17.2,8Zm6.084,4.243a7.822,7.822,0,0,1,1.775,4.9,18.367,18.367,0,0,0-5.473-.253c-.213-.521-.415-.979-.691-1.544a10.469,10.469,0,0,0,4.389-3.1Zm-.874-.909a8.874,8.874,0,0,1-4.119,2.839,41.951,41.951,0,0,0-2.933-4.6A7.839,7.839,0,0,1,22.411,11.334ZM13.86,10.1a50.148,50.148,0,0,1,2.914,4.545,29.315,29.315,0,0,1-7.266.958A7.888,7.888,0,0,1,13.86,10.1ZM9.342,17.213c0-.08,0-.16,0-.24a28.991,28.991,0,0,0,8.077-1.118c.225.44.44.887.637,1.334a12.174,12.174,0,0,0-6.7,5.28A7.828,7.828,0,0,1,9.342,17.213Zm3.035,6.2a11.054,11.054,0,0,1,6.218-4.926,32.669,32.669,0,0,1,1.677,5.96A7.843,7.843,0,0,1,12.377,23.414Zm9.215.315a33.921,33.921,0,0,0-1.527-5.6,11.536,11.536,0,0,1,4.9.336A7.873,7.873,0,0,1,21.593,23.728Z"
       transform="translate(0.833 0.833)"
       fill="#fff"
       id="path4" />
  </g>
</svg>
