<?xml version="1.0" encoding="UTF-8" standalone="no"?>
<svg
   xmlns:dc="http://purl.org/dc/elements/1.1/"
   xmlns:cc="http://creativecommons.org/ns#"
   xmlns:rdf="http://www.w3.org/1999/02/22-rdf-syntax-ns#"
   xmlns:svg="http://www.w3.org/2000/svg"
   xmlns="http://www.w3.org/2000/svg"
   xmlns:sodipodi="http://sodipodi.sourceforge.net/DTD/sodipodi-0.dtd"
   xmlns:inkscape="http://www.inkscape.org/namespaces/inkscape"
   width="35"
   height="35"
   viewBox="0 0 35 35"
   version="1.1"
   id="svg14"
   sodipodi:docname="c.svg"
   inkscape:version="1.0 (4035a4fb49, 2020-05-01)">
  <metadata
     id="metadata20">
    <rdf:RDF>
      <cc:Work
         rdf:about="">
        <dc:format>image/svg+xml</dc:format>
        <dc:type
           rdf:resource="http://purl.org/dc/dcmitype/StillImage" />
      </cc:Work>
    </rdf:RDF>
  </metadata>
  <defs
     id="defs18" />
  <sodipodi:namedview
     inkscape:document-rotation="0"
     pagecolor="#ffffff"
     bordercolor="#666666"
     borderopacity="1"
     objecttolerance="10"
     gridtolerance="10"
     guidetolerance="10"
     inkscape:pageopacity="0"
     inkscape:pageshadow="2"
     inkscape:window-width="1366"
     inkscape:window-height="705"
     id="namedview16"
     showgrid="false"
     inkscape:zoom="12.971429"
     inkscape:cx="17.5"
     inkscape:cy="17.5"
     inkscape:window-x="-8"
     inkscape:window-y="-8"
     inkscape:window-maximized="1"
     inkscape:current-layer="g12" />
  <g
     transform="translate(-2854 -15579)"
     id="g12">
    <circle
       cx="17.5"
       cy="17.5"
       transform="translate(2854,15579)"
       fill="#1b25fb"
       id="circle2"
       r="17.5"
       style="fill:#000000" />
    <g
       transform="translate(2486 15261)"
       id="g10">
      <g
         transform="translate(375 325)"
         id="g8">
        <path
           d="M0,0H21.4V21.4H0Z"
           fill="none"
           fill-rule="evenodd"
           id="path4" />
        <path
           d="M3.6,17.72a1.278,1.278,0,0,0,.542.12h13.7a1.28,1.28,0,0,0,.551-.124l-5.935-5.087-.237.166a2.14,2.14,0,0,1-2.454,0l-.229-.161Zm-.612-.6.027-.025,5.795-4.967L2.856,7.962v8.594A1.279,1.279,0,0,0,2.986,17.119Zm16.009-.01a1.279,1.279,0,0,0,.125-.554V7.962l-5.943,4.16,5.8,4.972ZM2,7.14H2A2.14,2.14,0,0,1,4.14,5h13.7a2.14,2.14,0,0,1,2.14,2.14v9.416a2.14,2.14,0,0,1-2.14,2.14H4.14A2.14,2.14,0,0,1,2,16.556V7.14Zm17.1-.211a1.284,1.284,0,0,0-1.267-1.073H4.14A1.284,1.284,0,0,0,2.873,6.929l7.378,5.165a1.284,1.284,0,0,0,1.473,0Z"
           transform="translate(-0.288 -0.72)"
           fill="#fff"
           id="path6" />
      </g>
    </g>
  </g>
</svg>
