<svg xmlns="http://www.w3.org/2000/svg" width="60.934" height="10.575" viewBox="0 0 60.934 10.575"><g transform="translate(-3129.304 -14968.933)"><path d="M-16.238,0V-7.5h7.5v.781H-15.3v2.5h6.25v.781H-15.3V-.781h6.563V0ZM-1.863,0H-2.8V-3.174a4.714,4.714,0,0,0-.066-.857,1.1,1.1,0,0,0-.269-.564,1.164,1.164,0,0,0-.571-.31A4,4,0,0,0-4.675-5a4.435,4.435,0,0,0-1.084.11,1.752,1.752,0,0,0-.669.308,1.038,1.038,0,0,0-.339.476,1.907,1.907,0,0,0-.1.62V0H-7.8V-5.625h.938v.889q0-.015.044-.1a.913.913,0,0,1,.139-.2,1.854,1.854,0,0,1,.273-.247,1.973,1.973,0,0,1,.449-.244,3.489,3.489,0,0,1,.667-.186,5.1,5.1,0,0,1,.928-.073,5.542,5.542,0,0,1,.916.066,2.588,2.588,0,0,1,.664.2,1.384,1.384,0,0,1,.449.322,1.522,1.522,0,0,1,.276.442A1.872,1.872,0,0,1-1.8-5.063,1.946,1.946,0,0,1-1.309-5.4,3.465,3.465,0,0,1-.52-5.671a5.207,5.207,0,0,1,1.157-.11,5.3,5.3,0,0,1,.964.076,2.373,2.373,0,0,1,.681.225,1.361,1.361,0,0,1,.447.369,1.621,1.621,0,0,1,.259.51,3.015,3.015,0,0,1,.12.649q.029.359.029.779V0H2.2V-3.174a4.714,4.714,0,0,0-.066-.857,1.1,1.1,0,0,0-.269-.564,1.164,1.164,0,0,0-.571-.31A4,4,0,0,0,.325-5a4.435,4.435,0,0,0-1.084.11,1.752,1.752,0,0,0-.669.308,1.038,1.038,0,0,0-.339.476,1.907,1.907,0,0,0-.1.62ZM9.988-.771a1.265,1.265,0,0,1-.22.293,1.342,1.342,0,0,1-.391.31,2.205,2.205,0,0,1-.652.21A6.1,6.1,0,0,1,7.654.117,10.751,10.751,0,0,1,6.145.027,3.607,3.607,0,0,1,5.125-.251a1.329,1.329,0,0,1-.579-.481,1.291,1.291,0,0,1-.183-.7,2.261,2.261,0,0,1,.1-.72,1.306,1.306,0,0,1,.293-.5,1.351,1.351,0,0,1,.466-.312,2.9,2.9,0,0,1,.623-.171A5.886,5.886,0,0,1,6.609-3.2q.415-.015.884-.015a9.261,9.261,0,0,1,1.118.056,4.647,4.647,0,0,1,.735.142,1.66,1.66,0,0,1,.432.183.882.882,0,0,1,.21.181,7.973,7.973,0,0,0-.046-.933,2.54,2.54,0,0,0-.151-.645,1.132,1.132,0,0,0-.271-.413,1.078,1.078,0,0,0-.408-.232,2.365,2.365,0,0,0-.564-.1Q8.225-5,7.81-5q-.645,0-1.069.032a2.529,2.529,0,0,0-.674.125.673.673,0,0,0-.352.256.794.794,0,0,0-.1.427H4.675a1.625,1.625,0,0,1,.159-.752,1.186,1.186,0,0,1,.527-.5,3.072,3.072,0,0,1,.969-.281A10.46,10.46,0,0,1,7.81-5.781a6.394,6.394,0,0,1,1.455.142,2.029,2.029,0,0,1,.964.5,2.045,2.045,0,0,1,.532.959,5.953,5.953,0,0,1,.164,1.526V0H9.988ZM7.81-.664A7.766,7.766,0,0,0,8.848-.722,2.468,2.468,0,0,0,9.519-.9a.8.8,0,0,0,.361-.289.752.752,0,0,0,.107-.4.623.623,0,0,0-.125-.393.871.871,0,0,0-.415-.263,3.386,3.386,0,0,0-.769-.147Q8.2-2.437,7.5-2.437t-1.135.024A2.39,2.39,0,0,0,5.7-2.3a.529.529,0,0,0-.315.255,1.076,1.076,0,0,0-.081.458,1.1,1.1,0,0,0,.085.47.6.6,0,0,0,.349.282A2.787,2.787,0,0,0,6.494-.7Q6.99-.664,7.81-.664Zm4.678-4.961h.938V0h-.937Zm.938-.937h-.937V-7.5h.938ZM15.3-7.5h.938V0H15.3Z" transform="translate(3174 14979)" fill="#fff" opacity="0.5"/><g transform="translate(3130 14969.433)" opacity="0.5"><path d="M3.2,4h9.575a1.2,1.2,0,0,1,1.2,1.2v7.181a1.2,1.2,0,0,1-1.2,1.2H3.2a1.2,1.2,0,0,1-1.2-1.2V5.2A1.2,1.2,0,0,1,3.2,4Z" transform="translate(-2 -4)" fill="none" stroke="#fff" stroke-linecap="round" stroke-linejoin="round" stroke-width="1"/><path d="M13.969,6,7.984,10.189,2,6" transform="translate(-2 -4.803)" fill="none" stroke="#fff" stroke-linecap="round" stroke-linejoin="round" stroke-width="1"/></g></g></svg>