<?xml version="1.0" encoding="UTF-8"?>
<svg width="16.489mm" height="3.2205mm" version="1.1" viewBox="0 0 16.489 3.2205" xmlns="http://www.w3.org/2000/svg" xmlns:cc="http://creativecommons.org/ns#" xmlns:dc="http://purl.org/dc/elements/1.1/" xmlns:rdf="http://www.w3.org/1999/02/22-rdf-syntax-ns#">
 <metadata>
  <rdf:RDF>
   <cc:Work rdf:about="">
    <dc:format>image/svg+xml</dc:format>
    <dc:type rdf:resource="http://purl.org/dc/dcmitype/StillImage"/>
    <dc:title/>
   </cc:Work>
  </rdf:RDF>
 </metadata>
 <g transform="translate(-76.748 -123.82)">
  <g fill="#fff" stroke-width=".26458" aria-label="Home">
   <path d="m80.055 123.82h0.39688v3.175h-0.39688v-1.4552h-2.9104v1.4552h-0.39688v-3.175h0.39688v1.3891h2.9104z"/>
   <path d="m81.362 125.79q0-0.36587 0.07855-0.60565t0.25218-0.38034q0.17363-0.14056 0.45062-0.19637 0.27698-0.0579 0.67386-0.0579 0.39687 0 0.67386 0.0579 0.27698 0.0558 0.45062 0.19637 0.17363 0.14056 0.25218 0.38034 0.07855 0.23978 0.07855 0.60565t-0.07855 0.60771q-0.07855 0.24185-0.25218 0.38448-0.17363 0.14262-0.45062 0.20257-0.27699 0.0579-0.67386 0.0579-0.39688 0-0.67386-0.0579-0.27699-0.06-0.45062-0.20257-0.17363-0.14263-0.25218-0.38448-0.07855-0.24184-0.07855-0.60771zm0.39687 0q0 0.19844 0.01447 0.3452t0.05374 0.25218q0.04134 0.10542 0.11369 0.17156 0.07235 0.0662 0.19017 0.10542 0.11782 0.0393 0.28525 0.0538 0.1695 0.0145 0.40101 0.0145 0.19844 0 0.35347-8e-3 0.1571-0.0103 0.27285-0.0434 0.11782-0.0331 0.2005-0.093 0.08268-0.062 0.13229-0.16743 0.05168-0.10542 0.07441-0.25838 0.0248-0.15503 0.0248-0.37207 0-0.21291-0.0248-0.36174-0.02274-0.15089-0.07441-0.25218-0.04961-0.10128-0.13229-0.15916-0.08268-0.0599-0.2005-0.0889-0.11576-0.031-0.27285-0.0393-0.15503-8e-3 -0.35347-8e-3 -0.19844 0-0.35553 8e-3 -0.15503 8e-3 -0.27285 0.0393-0.11576 0.0289-0.19844 0.0889-0.08268 0.0579-0.13436 0.15916-0.04961 0.10129-0.07441 0.25218-0.02274 0.14883-0.02274 0.36174z"/>
   <path d="m87.564 127h-0.39688v-1.3436q0-0.21497-0.02894-0.36173-0.02687-0.14883-0.11369-0.23978-0.08475-0.091-0.24184-0.13022-0.15503-0.0413-0.40928-0.0413-0.27905 0-0.45889 0.0475-0.17983 0.0455-0.28319 0.13022-0.10335 0.0827-0.14469 0.20051-0.03927 0.11782-0.03927 0.26251v1.4759h-0.39688v-2.3812h0.39688v0.37621q0.0021-6e-3 0.0186-0.0413 0.01654-0.0351 0.05788-0.0827 0.04341-0.0496 0.11576-0.10542 0.07441-0.0558 0.19017-0.10335 0.11782-0.0475 0.28319-0.0786 0.16536-0.031 0.39274-0.031 0.22324 0 0.38654 0.0289 0.16536 0.0269 0.28112 0.0827 0.11782 0.0537 0.19017 0.13642 0.07441 0.0806 0.11782 0.18604 0.03514-0.0558 0.10955-0.13023 0.07441-0.0744 0.20671-0.14262 0.13436-0.0682 0.33486-0.11369 0.2005-0.0475 0.48989-0.0475 0.23771 0 0.40721 0.0331 0.17157 0.031 0.28939 0.0951 0.11782 0.062 0.1881 0.15503 0.07235 0.093 0.10955 0.21704 0.03927 0.12196 0.05168 0.27492 0.0124 0.1509 0.0124 0.32866v1.3435h-0.39688v-1.3436q0-0.21497-0.02894-0.36173-0.02687-0.14883-0.11369-0.23978-0.08475-0.091-0.24184-0.13022-0.15503-0.0413-0.40928-0.0413-0.27905 0-0.45889 0.0475-0.17983 0.0455-0.28319 0.13022-0.10335 0.0827-0.14469 0.20051-0.03927 0.11782-0.03927 0.26251z"/>
   <path d="m91.914 127.05q-0.39688 0-0.67386-0.0537-0.27698-0.0558-0.45062-0.19017-0.17363-0.13436-0.25218-0.35966-0.07855-0.22531-0.07855-0.56638 0-0.39067 0.07855-0.64492 0.07855-0.25631 0.25218-0.40721 0.17363-0.15089 0.45062-0.21084 0.27699-0.0599 0.67386-0.0599 0.28319 0 0.48989 0.0413 0.20877 0.0413 0.35553 0.11989 0.14883 0.0785 0.23978 0.19017 0.09302 0.11162 0.14469 0.23564 0.05374 0.12196 0.07235 0.28732 0.02067 0.16537 0.02067 0.34933l-0.03307 0.13229h-2.3482q0 0.27286 0.05374 0.44856 0.05374 0.17363 0.17777 0.25424 0.12402 0.0806 0.3266 0.10336 0.20257 0.0207 0.50023 0.0207 0.27285 0 0.45062-0.0145 0.17983-0.0165 0.28525-0.06 0.10542-0.0434 0.14676-0.11989 0.04341-0.0785 0.04341-0.20257h0.39688q0 0.19224-0.06821 0.32866-0.06615 0.13436-0.22118 0.21911-0.15503 0.0827-0.40928 0.11989-0.25218 0.0393-0.62425 0.0393zm0-2.1621q-0.19844 0-0.35553 8e-3 -0.15503 8e-3 -0.27285 0.0372-0.11576 0.0269-0.19844 0.0806-0.08268 0.0517-0.13436 0.12402-0.04961 0.0703-0.07441 0.2005-0.02274 0.12816-0.02274 0.31006h1.9844q0-0.24184-0.05168-0.37827-0.05168-0.13849-0.1633-0.22738-0.11162-0.0889-0.28732-0.12195-0.1757-0.0331-0.42375-0.0331z"/>
  </g>
 </g>
</svg>
