<svg xmlns="http://www.w3.org/2000/svg" xmlns:xlink="http://www.w3.org/1999/xlink" width="172.591" height="176.265" viewBox="0 0 172.591 176.265"><defs><linearGradient id="a" x1="0.5" x2="1" y2="1.279" gradientUnits="objectBoundingBox"><stop offset="0" stop-color="#8fe674"/><stop offset="1" stop-color="#08faf6"/></linearGradient></defs><g transform="translate(-891.016 -846.562)"><rect width="145.018" height="139.821" rx="57" transform="matrix(0.259, 0.966, -0.966, 0.259, 1026.073, 846.562)" opacity="0.32" fill="url(#a)"/><rect width="114.018" height="109.821" rx="45" transform="translate(909.581 893.993) rotate(-13)" fill="url(#a)"/><path d="M451.431,505.485a4.653,4.653,0,0,0-3.58-3.438,86.745,86.745,0,0,0-33.767.02,4.67,4.67,0,0,0-3.55,3.315,39.766,39.766,0,0,0,0,22.085,4.669,4.669,0,0,0,3.661,3.352,97.53,97.53,0,0,0,33.432.039,4.734,4.734,0,0,0,3.817-3.5,44.274,44.274,0,0,0-.012-21.873Zm-11.52,18.21H422.23a1.142,1.142,0,0,1-1.057-1.574,28.838,28.838,0,0,1,5.81-8.733,1.149,1.149,0,0,1,1.672,0,32.244,32.244,0,0,1,4.582,6.222,23.5,23.5,0,0,1,2.317-2.9.779.779,0,0,1,1.133,0,19.809,19.809,0,0,1,3.937,5.924.774.774,0,0,1-.715,1.068Zm-1.934-9.34a2.882,2.882,0,1,1,2.038-.844,2.882,2.882,0,0,1-2.038.844Z" transform="translate(434.076 537.442) rotate(-14)" fill="#fff"/></g></svg>