<svg xmlns="http://www.w3.org/2000/svg" xmlns:xlink="http://www.w3.org/1999/xlink" width="74.9" height="96.283" viewBox="0 0 74.9 96.283"><defs><linearGradient id="a" x1="0.5" x2="1" y2="1.279" gradientUnits="objectBoundingBox"><stop offset="0" stop-color="#f4d713"/><stop offset="1" stop-color="#fb24d0"/></linearGradient></defs><g transform="translate(-17433.449 -14666.837)"><rect width="74.9" height="72.22" rx="23" transform="translate(17433.449 14666.837)" opacity="0.61" fill="url(#a)"/><rect width="58.89" height="56.72" rx="23" transform="translate(17441.68 14674.083)" fill="url(#a)"/><path d="M26.187,2.124A1.92,1.92,0,0,0,25.476.657L25.419.608A2.7,2.7,0,0,0,22.034.584L8.15,11.661a6.384,6.384,0,0,0-5.32,1.345A5.28,5.28,0,0,0,.924,17.653v.416a5.762,5.762,0,0,1-.8,2.372.851.851,0,0,0-.057.783,1.023,1.023,0,0,0,.626.562,11.5,11.5,0,0,0,3.955.709,9.162,9.162,0,0,0,6-2.127A5.314,5.314,0,0,0,12.73,16.43a5.457,5.457,0,0,0-.114-.978L25.476,3.567A1.91,1.91,0,0,0,26.187,2.124ZM9.06,18.973a7.056,7.056,0,0,1-6.4,1.32,6.578,6.578,0,0,0,.541-2.2h0V17.6a3.461,3.461,0,0,1,1.223-3.2,4,4,0,0,1,5.007,0,2.7,2.7,0,0,1,1.053,2.03A3.535,3.535,0,0,1,9.06,18.973ZM23.883,2.2l-.028.024L11.592,13.544a5.19,5.19,0,0,0-.541-.538c-.2-.171-.427-.318-.626-.465L23.6,2l.028-.024a.153.153,0,0,1,.2,0l.057.049a.164.164,0,0,1,.028.1A.082.082,0,0,1,23.883,2.2Z" transform="translate(17460.902 14688.864) rotate(13)" fill="#fff"/><path d="M-26.376.12a3.389,3.389,0,0,1-2.442-.774,3.148,3.148,0,0,1-.8-2.358V-8.4h.864v5.508a2.28,2.28,0,0,0,.576,1.716,2.525,2.525,0,0,0,1.8.552,2.517,2.517,0,0,0,1.8-.546,2.306,2.306,0,0,0,.564-1.722V-8.4h.864v5.388a3.186,3.186,0,0,1-.78,2.37A3.394,3.394,0,0,1-26.376.12Zm5.892-8.52h.864V0h-.864ZM-8.916-1.188a2.294,2.294,0,0,0,.726.522,2.306,2.306,0,0,0,.738.126v.324q0,.336-.5.336a1.479,1.479,0,0,1-.69-.186A3.305,3.305,0,0,1-9.432-.7a3.789,3.789,0,0,1-2.4.816,3.187,3.187,0,0,1-1.254-.246,2.166,2.166,0,0,1-.936-.738,1.98,1.98,0,0,1-.354-1.188,2.394,2.394,0,0,1,.408-1.41,4.746,4.746,0,0,1,1.392-1.194,6,6,0,0,1-.57-1.062,2.594,2.594,0,0,1-.186-.954,1.861,1.861,0,0,1,.252-.966,1.707,1.707,0,0,1,.684-.654,2.025,2.025,0,0,1,.96-.228,1.838,1.838,0,0,1,1.272.462A1.556,1.556,0,0,1-9.648-6.84a1.787,1.787,0,0,1-.462,1.212,6.6,6.6,0,0,1-1.47,1.152q.42.6,1.05,1.4T-9.444-1.74A4.358,4.358,0,0,0-8.832-2.9,4.324,4.324,0,0,0-8.58-4.176a.921.921,0,0,1,.54.108.6.6,0,0,1,.132.468,3.353,3.353,0,0,1-.258,1.194A3.982,3.982,0,0,1-8.916-1.188Zm-2.556-6.7a1.134,1.134,0,0,0-.81.288,1.183,1.183,0,0,0-.306.9,2.067,2.067,0,0,0,.162.774,6.079,6.079,0,0,0,.474.906,4.493,4.493,0,0,0,1.188-.912,1.463,1.463,0,0,0,.36-.96.968.968,0,0,0-.282-.714A1.062,1.062,0,0,0-11.472-7.884ZM-13.6-2a1.307,1.307,0,0,0,.258.81,1.6,1.6,0,0,0,.672.516A2.223,2.223,0,0,0-11.8-.5a2.706,2.706,0,0,0,1.884-.72q-.564-.648-1.206-1.452t-1.074-1.416a4.023,4.023,0,0,0-1.092.942A1.933,1.933,0,0,0-13.6-2ZM3.78-8.4A25.547,25.547,0,0,1,2.658-4.122,27.54,27.54,0,0,1,.768,0h-.9A28.257,28.257,0,0,1-2.04-4.146,24.542,24.542,0,0,1-3.156-8.4h.912A22.9,22.9,0,0,0,.312-.948,22.9,22.9,0,0,0,2.868-8.4ZM5.46-6.6h.816V0H5.46Zm.36-1.212a.477.477,0,0,1-.54-.54V-8.46A.477.477,0,0,1,5.82-9h.1a.477.477,0,0,1,.54.54v.108a.477.477,0,0,1-.54.54ZM10.536.12A3.734,3.734,0,0,1,9.42-.06a3,3,0,0,1-.96-.48.829.829,0,0,1-.384-.636.437.437,0,0,1,.1-.282.522.522,0,0,1,.258-.174,2.822,2.822,0,0,0,.936.822,2.632,2.632,0,0,0,1.212.258A1.671,1.671,0,0,0,11.73-.9a1.178,1.178,0,0,0,.39-.924.856.856,0,0,0-.234-.624,1.47,1.47,0,0,0-.576-.36q-.342-.12-.942-.276a9.954,9.954,0,0,1-1.122-.348,1.81,1.81,0,0,1-.72-.51,1.36,1.36,0,0,1-.294-.918,1.639,1.639,0,0,1,.324-1.032,1.949,1.949,0,0,1,.828-.624,2.727,2.727,0,0,1,1.032-.2,3.1,3.1,0,0,1,1.374.3,2.252,2.252,0,0,1,.966.876.78.78,0,0,1-.492.3.4.4,0,0,1-.3-.168,1.813,1.813,0,0,0-.666-.5,2.327,2.327,0,0,0-.918-.162,1.513,1.513,0,0,0-.972.288,1.069,1.069,0,0,0-.36.888.763.763,0,0,0,.216.564A1.414,1.414,0,0,0,9.8-4q.324.114.888.258a8.34,8.34,0,0,1,1.17.348,1.879,1.879,0,0,1,.762.558,1.544,1.544,0,0,1,.312,1.014,1.726,1.726,0,0,1-.654,1.416A2.7,2.7,0,0,1,10.536.12ZM19.62-1.356A4.25,4.25,0,0,0,19.8-.084a1.028,1.028,0,0,1-.516.144.386.386,0,0,1-.366-.21,1.846,1.846,0,0,1-.126-.762,2.34,2.34,0,0,1-.948.75,3.116,3.116,0,0,1-1.32.282Q14.5.12,14.5-2.1V-6.6h.816v4.416a1.979,1.979,0,0,0,.324,1.266,1.267,1.267,0,0,0,1.032.39,2.339,2.339,0,0,0,1.194-.324,2.7,2.7,0,0,0,.93-.912V-6.6h.828Zm6.828-.288a3.327,3.327,0,0,0,.09.87,1.414,1.414,0,0,0,.318.57.927.927,0,0,1-.282.192.755.755,0,0,1-.306.072.468.468,0,0,1-.4-.276,1.872,1.872,0,0,1-.21-.756,2.572,2.572,0,0,1-1,.8A3.033,3.033,0,0,1,23.352.12a2.17,2.17,0,0,1-1.464-.474A1.558,1.558,0,0,1,21.336-1.6a1.957,1.957,0,0,1,1.1-1.764,7.151,7.151,0,0,1,3.2-.732v-.384a1.578,1.578,0,0,0-.4-1.182,1.688,1.688,0,0,0-1.218-.39,2.18,2.18,0,0,0-.978.222,3.808,3.808,0,0,0-.966.738.244.244,0,0,1-.18.072.469.469,0,0,1-.264-.1,1.159,1.159,0,0,1-.276-.294,3.781,3.781,0,0,1,1.23-.972,3.314,3.314,0,0,1,1.47-.336,2.473,2.473,0,0,1,1.758.6,2.141,2.141,0,0,1,.642,1.644ZM23.412-.552a2.271,2.271,0,0,0,1.224-.36,3.2,3.2,0,0,0,1-1.02V-3.42q-3.456.144-3.456,1.812Q22.176-.552,23.412-.552Zm5.22-8.94h.816V0h-.816Z" transform="translate(17469 14763)" fill="#fff" opacity="0.5"/></g></svg>