<svg xmlns="http://www.w3.org/2000/svg" xmlns:xlink="http://www.w3.org/1999/xlink" width="74.9" height="95.864" viewBox="0 0 74.9 95.864"><defs><linearGradient id="a" x1="0.5" x2="1" y2="1.279" gradientUnits="objectBoundingBox"><stop offset="0" stop-color="#8fe674"/><stop offset="1" stop-color="#08faf6"/></linearGradient></defs><g transform="translate(-17694.803 -14667.256)"><rect width="74.9" height="72.216" rx="23" transform="translate(17694.803 14667.256)" opacity="0.32" fill="url(#a)"/><rect width="58.889" height="56.721" rx="23" transform="translate(17702.441 14675.34)" fill="url(#a)"/><path d="M22.733,2.723A2.491,2.491,0,0,0,20.816.883,46.441,46.441,0,0,0,2.738.893a2.5,2.5,0,0,0-1.9,1.775,21.29,21.29,0,0,0,0,11.824A2.5,2.5,0,0,0,2.8,16.286a52.214,52.214,0,0,0,17.9.021,2.534,2.534,0,0,0,2.044-1.874,23.7,23.7,0,0,0-.007-11.71Zm-6.168,9.749H7.1a.612.612,0,0,1-.566-.842,15.439,15.439,0,0,1,3.11-4.675.615.615,0,0,1,.895,0,17.262,17.262,0,0,1,2.453,3.331,12.579,12.579,0,0,1,1.24-1.555.417.417,0,0,1,.607,0A10.605,10.605,0,0,1,16.947,11.9a.414.414,0,0,1-.383.572Zm-1.035-5a1.543,1.543,0,1,1,1.091-.452,1.543,1.543,0,0,1-1.091.452Z" transform="translate(17721.084 14694.549) rotate(1)" fill="#fff"/><path d="M-29.13-8.4h.864V0h-.864ZM-25.4-9.492h.816V0H-25.4Zm3.216,0h.816V0h-.816Zm8.22,8.136a4.25,4.25,0,0,0,.18,1.272A1.028,1.028,0,0,1-14.3.06a.386.386,0,0,1-.366-.21,1.846,1.846,0,0,1-.126-.762,2.34,2.34,0,0,1-.948.75,3.116,3.116,0,0,1-1.32.282q-2.028,0-2.028-2.22V-6.6h.816v4.416a1.979,1.979,0,0,0,.324,1.266,1.267,1.267,0,0,0,1.032.39A2.339,2.339,0,0,0-15.72-.852a2.7,2.7,0,0,0,.93-.912V-6.6h.828ZM-9.906.12a3.734,3.734,0,0,1-1.116-.18,3,3,0,0,1-.96-.48.829.829,0,0,1-.384-.636.437.437,0,0,1,.1-.282.522.522,0,0,1,.258-.174,2.822,2.822,0,0,0,.936.822,2.632,2.632,0,0,0,1.212.258A1.671,1.671,0,0,0-8.712-.9a1.178,1.178,0,0,0,.39-.924.856.856,0,0,0-.234-.624,1.47,1.47,0,0,0-.576-.36q-.342-.12-.942-.276A9.954,9.954,0,0,1-11.2-3.432a1.81,1.81,0,0,1-.72-.51,1.36,1.36,0,0,1-.294-.918,1.639,1.639,0,0,1,.324-1.032,1.949,1.949,0,0,1,.828-.624,2.727,2.727,0,0,1,1.032-.2,3.1,3.1,0,0,1,1.374.3,2.252,2.252,0,0,1,.966.876.78.78,0,0,1-.492.3.4.4,0,0,1-.3-.168,1.813,1.813,0,0,0-.666-.5,2.327,2.327,0,0,0-.918-.162,1.513,1.513,0,0,0-.972.288,1.069,1.069,0,0,0-.36.888.763.763,0,0,0,.216.564,1.414,1.414,0,0,0,.54.33q.324.114.888.258A8.34,8.34,0,0,1-8.58-3.4a1.879,1.879,0,0,1,.762.558,1.544,1.544,0,0,1,.312,1.014A1.726,1.726,0,0,1-8.16-.408,2.7,2.7,0,0,1-9.906.12ZM-2.922-.8a.438.438,0,0,1,.138.174A.541.541,0,0,1-2.73-.4a.334.334,0,0,1-.192.324,2.231,2.231,0,0,1-1,.192A1.783,1.783,0,0,1-5.166-.306a1.473,1.473,0,0,1-.468-1.146v-4.5H-6.882V-6.6h1.248V-8.4h.816v1.8H-3.09v.648H-4.818v4.344q0,1.008.864,1.008A2.611,2.611,0,0,0-2.922-.8Zm4.056-5.88a1.225,1.225,0,0,1,.642.138A.455.455,0,0,1,2-6.132a.525.525,0,0,1-.132.348,1.676,1.676,0,0,0-.792-.156A1.543,1.543,0,0,0-.216-5.3,2.674,2.674,0,0,0-.7-3.636V0h-.816V-6.6H-.7v1.188a2.453,2.453,0,0,1,.78-.912A1.79,1.79,0,0,1,1.134-6.684Zm6.84,5.04a3.327,3.327,0,0,0,.09.87,1.414,1.414,0,0,0,.318.57A.927.927,0,0,1,8.1-.012.755.755,0,0,1,7.794.06a.468.468,0,0,1-.4-.276,1.872,1.872,0,0,1-.21-.756,2.572,2.572,0,0,1-1,.8A3.033,3.033,0,0,1,4.878.12,2.17,2.17,0,0,1,3.414-.354,1.558,1.558,0,0,1,2.862-1.6,1.957,1.957,0,0,1,3.96-3.36a7.151,7.151,0,0,1,3.2-.732v-.384a1.578,1.578,0,0,0-.4-1.182,1.688,1.688,0,0,0-1.218-.39,2.18,2.18,0,0,0-.978.222,3.808,3.808,0,0,0-.966.738.244.244,0,0,1-.18.072.469.469,0,0,1-.264-.1,1.159,1.159,0,0,1-.276-.294A3.781,3.781,0,0,1,4.1-6.384a3.314,3.314,0,0,1,1.47-.336,2.473,2.473,0,0,1,1.758.6,2.141,2.141,0,0,1,.642,1.644ZM4.938-.552a2.271,2.271,0,0,0,1.224-.36,3.2,3.2,0,0,0,1-1.02V-3.42Q3.7-3.276,3.7-1.608,3.7-.552,4.938-.552ZM13.062-.8A.438.438,0,0,1,13.2-.63a.541.541,0,0,1,.054.234.334.334,0,0,1-.192.324,2.231,2.231,0,0,1-1,.192,1.783,1.783,0,0,1-1.248-.426,1.473,1.473,0,0,1-.468-1.146v-4.5H9.1V-6.6H10.35V-8.4h.816v1.8h1.728v.648H11.166v4.344q0,1.008.864,1.008A2.611,2.611,0,0,0,13.062-.8Zm1.7-5.8h.816V0h-.816Zm.36-1.212a.477.477,0,0,1-.54-.54V-8.46a.477.477,0,0,1,.54-.54h.1a.477.477,0,0,1,.54.54v.108a.477.477,0,0,1-.54.54ZM20.19.12a2.557,2.557,0,0,1-2.1-.864,3.98,3.98,0,0,1-.708-2.568q0-3.408,2.808-3.408T23-3.312A3.98,3.98,0,0,1,22.29-.744,2.557,2.557,0,0,1,20.19.12Zm0-.672a1.708,1.708,0,0,0,1.494-.666,3.657,3.657,0,0,0,.474-2.094,3.6,3.6,0,0,0-.474-2.076,1.714,1.714,0,0,0-1.494-.66,1.714,1.714,0,0,0-1.494.66,3.6,3.6,0,0,0-.474,2.076A3.657,3.657,0,0,0,18.7-1.218,1.708,1.708,0,0,0,20.19-.552Zm9.528-.984q0,.732.018.99a1.753,1.753,0,0,0,.09.462A1.376,1.376,0,0,1,29.2.06q-.18,0-.24-.258a5.546,5.546,0,0,1-.06-1.026V-4.476a1.909,1.909,0,0,0-.312-1.218,1.235,1.235,0,0,0-1.008-.378A3.284,3.284,0,0,0,25.374-5V0h-.816V-4.356a8.258,8.258,0,0,0-.144-2.112,1.559,1.559,0,0,1,.612-.18q.348,0,.348.7v.108a3.933,3.933,0,0,1,1.11-.666,3.328,3.328,0,0,1,1.182-.21,1.988,1.988,0,0,1,1.542.558,2.448,2.448,0,0,1,.51,1.7Z" transform="translate(17733 14763)" fill="#fff" opacity="0.5"/></g></svg>