<svg xmlns="http://www.w3.org/2000/svg" xmlns:xlink="http://www.w3.org/1999/xlink" width="74.9" height="95.864" viewBox="0 0 74.9 95.864"><defs><linearGradient id="a" x1="0.5" x2="1" y2="1.279" gradientUnits="objectBoundingBox"><stop offset="0" stop-color="#07faf8"/><stop offset="1" stop-color="#041c7d"/></linearGradient></defs><g transform="translate(-17562.76 -14667.256)"><rect width="74.9" height="72.216" rx="23" transform="translate(17562.76 14667.256)" opacity="0.32" fill="url(#a)"/><rect width="58.889" height="56.721" rx="23" transform="translate(17570.34 14675.34)" fill="url(#a)"/><path d="M21.862,19.424l-3.873-5.078a9.616,9.616,0,1,0-4.294,3.978l5.313,3.957a2.018,2.018,0,0,0,2.855-2.855ZM4.113,9.657A5.536,5.536,0,1,1,9.65,15.194,5.536,5.536,0,0,1,4.113,9.657Z" transform="matrix(0.839, -0.545, 0.545, 0.839, 17584.418, 14700.197)" fill="#fff"/><path d="M-31.254.12A3.389,3.389,0,0,1-33.7-.654a3.148,3.148,0,0,1-.8-2.358V-8.4h.864v5.508a2.28,2.28,0,0,0,.576,1.716,2.525,2.525,0,0,0,1.8.552,2.517,2.517,0,0,0,1.8-.546,2.306,2.306,0,0,0,.564-1.722V-8.4h.864v5.388a3.186,3.186,0,0,1-.78,2.37A3.394,3.394,0,0,1-31.254.12Zm10-.12a5.261,5.261,0,0,0-.756-2.022,11.876,11.876,0,0,0-1.524-1.842,11.876,11.876,0,0,0-1.524,1.842A5.261,5.261,0,0,0-25.818,0h-.924a6.66,6.66,0,0,1,.57-1.77,7.275,7.275,0,0,1,.882-1.386A16.464,16.464,0,0,1-24.1-4.44a13.506,13.506,0,0,1-1.62-1.9,5.61,5.61,0,0,1-.84-2.058h.9a4.919,4.919,0,0,0,.738,1.77A11.725,11.725,0,0,0-23.538-5,11.725,11.725,0,0,0-22.152-6.63a4.919,4.919,0,0,0,.738-1.77h.9a5.61,5.61,0,0,1-.84,2.058,13.506,13.506,0,0,1-1.62,1.9,16.464,16.464,0,0,1,1.188,1.284A7.275,7.275,0,0,1-20.9-1.77,6.66,6.66,0,0,1-20.334,0ZM-9.93-.036A1.054,1.054,0,0,1-10.446.1.672.672,0,0,1-10.8.012a.732.732,0,0,1-.246-.276l-1.368-2.352a1.725,1.725,0,0,0-.7-.714,2.5,2.5,0,0,0-1.122-.21h-.816V0h-.864V-8.4h2.724a3.635,3.635,0,0,1,2.28.642,2.128,2.128,0,0,1,.828,1.782,2.221,2.221,0,0,1-.6,1.554,2.616,2.616,0,0,1-1.56.81,2.981,2.981,0,0,1,.624.732Zm-3.324-4.248a2.75,2.75,0,0,0,1.674-.444,1.468,1.468,0,0,0,.594-1.248,1.48,1.48,0,0,0-.558-1.254,2.691,2.691,0,0,0-1.65-.426h-1.86v3.372Zm10.092.516q0,.276-.024.552H-7.962A3.235,3.235,0,0,0-7.4-1.272a1.763,1.763,0,0,0,1.482.7,2.217,2.217,0,0,0,1.1-.252,1.957,1.957,0,0,0,.75-.8.27.27,0,0,1,.252-.156,1.066,1.066,0,0,1,.528.228A2.291,2.291,0,0,1-4.266-.33,3.021,3.021,0,0,1-5.922.12a2.8,2.8,0,0,1-1.53-.414,2.648,2.648,0,0,1-1-1.188A4.433,4.433,0,0,1-8.8-3.312a3.674,3.674,0,0,1,.792-2.5A2.735,2.735,0,0,1-5.838-6.72a2.523,2.523,0,0,1,1.968.78A3.114,3.114,0,0,1-3.162-3.768Zm-.84-.1q0-2.16-1.872-2.16a1.9,1.9,0,0,0-1.44.552,2.6,2.6,0,0,0-.624,1.608ZM.258.12A3.734,3.734,0,0,1-.858-.06a3,3,0,0,1-.96-.48A.829.829,0,0,1-2.2-1.176a.437.437,0,0,1,.1-.282.522.522,0,0,1,.258-.174A2.822,2.822,0,0,0-.906-.81,2.632,2.632,0,0,0,.306-.552,1.671,1.671,0,0,0,1.452-.9a1.178,1.178,0,0,0,.39-.924.856.856,0,0,0-.234-.624,1.47,1.47,0,0,0-.576-.36Q.69-2.928.09-3.084a9.954,9.954,0,0,1-1.122-.348,1.81,1.81,0,0,1-.72-.51,1.36,1.36,0,0,1-.294-.918,1.639,1.639,0,0,1,.324-1.032,1.949,1.949,0,0,1,.828-.624,2.727,2.727,0,0,1,1.032-.2,3.1,3.1,0,0,1,1.374.3,2.252,2.252,0,0,1,.966.876.78.78,0,0,1-.492.3.4.4,0,0,1-.3-.168,1.813,1.813,0,0,0-.666-.5A2.327,2.327,0,0,0,.1-6.072a1.513,1.513,0,0,0-.972.288,1.069,1.069,0,0,0-.36.888.763.763,0,0,0,.216.564A1.414,1.414,0,0,0-.474-4q.324.114.888.258a8.34,8.34,0,0,1,1.17.348,1.879,1.879,0,0,1,.762.558,1.544,1.544,0,0,1,.312,1.014A1.726,1.726,0,0,1,2-.408,2.7,2.7,0,0,1,.258.12Zm9.12-3.888q0,.276-.024.552H4.578a3.235,3.235,0,0,0,.558,1.944,1.763,1.763,0,0,0,1.482.7,2.217,2.217,0,0,0,1.1-.252,1.957,1.957,0,0,0,.75-.8.27.27,0,0,1,.252-.156,1.066,1.066,0,0,1,.528.228A2.291,2.291,0,0,1,8.274-.33,3.021,3.021,0,0,1,6.618.12a2.8,2.8,0,0,1-1.53-.414,2.648,2.648,0,0,1-1-1.188,4.433,4.433,0,0,1-.348-1.83,3.674,3.674,0,0,1,.792-2.5A2.735,2.735,0,0,1,6.7-6.72a2.523,2.523,0,0,1,1.968.78A3.114,3.114,0,0,1,9.378-3.768Zm-.84-.1q0-2.16-1.872-2.16a1.9,1.9,0,0,0-1.44.552A2.6,2.6,0,0,0,4.6-3.864Zm7.032,2.22a3.327,3.327,0,0,0,.09.87,1.414,1.414,0,0,0,.318.57.927.927,0,0,1-.282.192A.755.755,0,0,1,15.39.06a.468.468,0,0,1-.4-.276,1.872,1.872,0,0,1-.21-.756,2.572,2.572,0,0,1-1,.8A3.033,3.033,0,0,1,12.474.12,2.17,2.17,0,0,1,11.01-.354,1.558,1.558,0,0,1,10.458-1.6a1.957,1.957,0,0,1,1.1-1.764,7.151,7.151,0,0,1,3.2-.732v-.384a1.578,1.578,0,0,0-.4-1.182,1.688,1.688,0,0,0-1.218-.39,2.18,2.18,0,0,0-.978.222,3.808,3.808,0,0,0-.966.738.244.244,0,0,1-.18.072.469.469,0,0,1-.264-.1,1.159,1.159,0,0,1-.276-.294,3.781,3.781,0,0,1,1.23-.972,3.314,3.314,0,0,1,1.47-.336,2.473,2.473,0,0,1,1.758.6,2.141,2.141,0,0,1,.642,1.644ZM12.534-.552a2.271,2.271,0,0,0,1.224-.36,3.2,3.2,0,0,0,1-1.02V-3.42Q11.3-3.276,11.3-1.608,11.3-.552,12.534-.552Zm7.692-6.132a1.225,1.225,0,0,1,.642.138.455.455,0,0,1,.222.414.525.525,0,0,1-.132.348,1.676,1.676,0,0,0-.792-.156,1.543,1.543,0,0,0-1.29.636,2.674,2.674,0,0,0-.486,1.668V0h-.816V-6.6h.816v1.188a2.453,2.453,0,0,1,.78-.912A1.79,1.79,0,0,1,20.226-6.684Zm4.68,6.8a2.868,2.868,0,0,1-2.262-.912,3.7,3.7,0,0,1-.81-2.544A4.1,4.1,0,0,1,22.2-5.13a2.708,2.708,0,0,1,1.05-1.176,3.045,3.045,0,0,1,1.608-.414,2.864,2.864,0,0,1,1.818.558,2.189,2.189,0,0,1,.834,1.518,1.95,1.95,0,0,1-.294.1,1.277,1.277,0,0,1-.306.048.212.212,0,0,1-.174-.066.871.871,0,0,1-.114-.282,1.419,1.419,0,0,0-.6-.882,2.024,2.024,0,0,0-1.164-.318,2,2,0,0,0-1.146.336,2.158,2.158,0,0,0-.768.954,3.522,3.522,0,0,0-.27,1.422,3.15,3.15,0,0,0,.606,2.028,1.976,1.976,0,0,0,1.626.756,2.356,2.356,0,0,0,1.332-.366,2.2,2.2,0,0,0,.828-1.074.347.347,0,0,1,.282.144.526.526,0,0,1,.114.336,1.158,1.158,0,0,1-.354.8,2.5,2.5,0,0,1-.948.606A3.469,3.469,0,0,1,24.906.12Zm7.3-6.84a2.218,2.218,0,0,1,1.632.594,2.169,2.169,0,0,1,.6,1.614V0h-.816V-4.428a1.716,1.716,0,0,0-.384-1.2,1.42,1.42,0,0,0-1.1-.42,3.122,3.122,0,0,0-1.164.246,3.943,3.943,0,0,0-1.092.654V0h-.816V-9.492h.816v3.564A4.218,4.218,0,0,1,31-6.516,3.708,3.708,0,0,1,32.2-6.72Z" transform="translate(17602 14763)" fill="#fff" opacity="0.5"/></g></svg>