<svg xmlns="http://www.w3.org/2000/svg" xmlns:xlink="http://www.w3.org/1999/xlink" width="172.754" height="168.86" viewBox="0 0 172.754 168.86"><defs><linearGradient id="a" x1="0.5" x2="1" y2="1.279" gradientUnits="objectBoundingBox"><stop offset="0" stop-color="#f4d713"/><stop offset="1" stop-color="#fb24d0"/></linearGradient></defs><g transform="translate(-220.581 -440.371)"><rect width="145.018" height="139.821" rx="57" transform="translate(220.581 472.993) rotate(-13)" opacity="0.61" fill="url(#a)"/><rect width="114.018" height="109.821" rx="45" transform="translate(238.581 483.993) rotate(-13)" fill="url(#a)"/><path d="M54.514,4.439a4,4,0,0,0-1.482-3.057l-.119-.1a5.629,5.629,0,0,0-7.054-.051L16.934,24.309a13.3,13.3,0,0,0-11.084,2.8c-4.09,3.465-4.031,7.337-3.971,9.68v.866A12.006,12.006,0,0,1,.218,42.6,1.773,1.773,0,0,0,.1,44.23,2.131,2.131,0,0,0,1.4,45.4a23.95,23.95,0,0,0,8.239,1.478A19.089,19.089,0,0,0,22.15,42.447c2.786-2.395,4.327-5.3,4.327-8.2a11.37,11.37,0,0,0-.237-2.038L53.032,7.445A3.979,3.979,0,0,0,54.514,4.439ZM18.83,39.542c-3.5,3.006-8.3,3.974-13.337,2.751A13.705,13.705,0,0,0,6.62,37.708h0V36.689C6.56,34.6,6.5,32.257,9.169,30.015a8.334,8.334,0,0,1,10.432,0,5.634,5.634,0,0,1,2.193,4.229C21.794,36.027,20.727,37.912,18.83,39.542ZM49.713,4.591l-.059.051L24.106,28.232a10.814,10.814,0,0,0-1.126-1.121c-.415-.357-.889-.662-1.3-.968L49.12,4.184l.059-.051a.32.32,0,0,1,.415,0l.119.1a.342.342,0,0,1,.059.2A.171.171,0,0,1,49.713,4.591Z" transform="translate(279.492 501.46)" fill="#fff"/></g></svg>