<svg xmlns="http://www.w3.org/2000/svg" xmlns:xlink="http://www.w3.org/1999/xlink" width="197.775" height="196.247" viewBox="0 0 197.775 196.247"><defs><linearGradient id="a" x1="0.5" x2="1" y2="1.279" gradientUnits="objectBoundingBox"><stop offset="0" stop-color="#07faf8"/><stop offset="1" stop-color="#041c7d"/></linearGradient></defs><g transform="translate(-1527.424 -441.571)"><rect width="145.018" height="139.821" rx="57" transform="matrix(0.839, 0.545, -0.545, 0.839, 1603.576, 441.571)" opacity="0.32" fill="url(#a)"/><rect width="114.018" height="109.821" rx="45" transform="matrix(0.839, 0.545, -0.545, 0.839, 1607.576, 462.571)" fill="url(#a)"/><path d="M459.1,194.32l-7.5-9.832a18.618,18.618,0,1,0-8.313,7.7l10.286,7.661a3.908,3.908,0,0,0,5.527-5.527Zm-34.364-18.911a10.719,10.719,0,1,1,10.72,10.721,10.718,10.718,0,0,1-10.72-10.721Z" transform="translate(1187.42 360.957)" fill="#fff"/></g></svg>